    <svg
      width="97"
      height="95"
      viewBox="0 0 97 95"
      fill="none"
      xmlns="http://www.w3.org/2000/svg"
    >
      <g clip-path="url(#clip0_58_135)">
        <path
          d="M58.3099 62.8642H37.8042C34.6196 62.8642 32.0381 60.2826 32.0381 57.0981V36.7214C32.0381 33.5368 34.6196 30.9553 37.8042 30.9553H58.3099C61.4944 30.9553 64.076 33.5368 64.076 36.7214V57.0981C64.076 60.2825 61.4944 62.8642 58.3099 62.8642Z"
          fill="#BBEC6C"
        />
        <path
          d="M58.3093 30.9551H50.6211C53.8056 30.9551 56.3872 33.5366 56.3872 36.7212V57.0979C56.3872 60.2824 53.8056 62.864 50.6211 62.864H58.3093C61.4938 62.864 64.0754 60.2824 64.0754 57.0979V36.7214C64.0754 33.5366 61.4938 30.9551 58.3093 30.9551Z"
          fill="#A2E62E"
        />
        <path
          d="M26.2718 62.8641H5.76609C2.58156 62.8641 0 60.2823 0 57.0978V36.7212C0 33.5367 2.58156 30.9551 5.76609 30.9551H26.2718C29.4563 30.9551 32.0379 33.5367 32.0379 36.7212V57.098C32.0381 60.2823 29.4563 62.8641 26.2718 62.8641Z"
          fill="#EFEDEF"
        />
        <path
          d="M26.2722 30.9551H18.584C21.7685 30.9551 24.3501 33.5366 24.3501 36.7212V57.0979C24.3501 60.2824 21.7685 62.864 18.584 62.864H26.2722C29.4567 62.864 32.0383 60.2824 32.0383 57.0979V36.7214C32.0385 33.5366 29.4567 30.9551 26.2722 30.9551Z"
          fill="#E5E1E5"
        />
        <path
          d="M22.3621 40.6115V53.2081H9.67578V40.6115H22.3621ZM41.7139 53.2079L48.057 40.6113L54.4002 53.2079H41.7139Z"
          fill="#F6A7D2"
        />
        <path
          d="M26.2718 94.6728H5.76609C2.58156 94.6728 0 92.0912 0 88.9065V68.5299C0 65.3454 2.58156 62.7638 5.76609 62.7638H26.2718C29.4563 62.7638 32.0379 65.3454 32.0379 68.5299V88.9067C32.0381 92.0912 29.4563 94.6728 26.2718 94.6728Z"
          fill="#8AC9FE"
        />
        <path
          d="M26.2722 62.7638H18.584C21.7685 62.7638 24.3501 65.3453 24.3501 68.5299V88.9066C24.3501 92.0912 21.7685 94.6727 18.584 94.6727H26.2722C29.4567 94.6727 32.0383 92.0912 32.0383 88.9066V68.5301C32.0385 65.3453 29.4567 62.7638 26.2722 62.7638Z"
          fill="#60B7FF"
        />
        <path
          d="M16.0185 71.3711L18.4146 76.2083L23.7724 76.984L19.8956 80.7491L20.8107 86.0656L16.0185 83.5556L11.2264 86.0656L12.1417 80.7491L8.26465 76.984L13.6224 76.2083L16.0185 71.3711Z"
          fill="#EFEDEF"
        />
        <path
          d="M54.6767 94.6729H58.3099C61.4944 94.6729 64.076 92.0913 64.076 88.9068V68.5804C64.076 65.3958 61.4944 62.8143 58.3099 62.8143H37.8042C34.6196 62.8143 32.0381 65.3958 32.0381 68.5804V88.9066C32.0381 92.0911 34.6196 94.6727 37.8042 94.6727H54.6767V94.6729Z"
          fill="#FEA95C"
        />
        <path
          d="M58.3103 62.8143H50.6221C53.8066 62.8143 56.3882 65.3958 56.3882 68.5804V88.9066C56.3882 92.0911 53.8066 94.6727 50.6221 94.6727H58.3103C61.4948 94.6727 64.0764 92.0911 64.0764 88.9066V68.5804C64.0764 65.3958 61.4948 62.8143 58.3103 62.8143Z"
          fill="#FE9738"
        />
        <path
          d="M47.5585 86.1169C51.7329 86.1169 55.1169 82.7329 55.1169 78.5585C55.1169 74.384 51.7329 71 47.5585 71C43.384 71 40 74.384 40 78.5585C40 82.7329 43.384 86.1169 47.5585 86.1169Z"
          fill="#FEE45A"
        />
        <path
          d="M58.3099 31.0554H37.8042C34.6196 31.0554 32.0381 28.4738 32.0381 25.2893V4.91255C32.0381 1.72802 34.6196 -0.853541 37.8042 -0.853541H58.3099C61.4944 -0.853541 64.076 1.72802 64.076 4.91255V25.2893C64.076 28.4736 61.4944 31.0554 58.3099 31.0554Z"
          fill="#F6A7D2"
        />
        <path
          d="M58.3103 -0.853613H50.6221C53.8066 -0.853613 56.3882 1.72795 56.3882 4.91248V25.2892C56.3882 28.4738 53.8066 31.0553 50.6221 31.0553H58.3103C61.4948 31.0553 64.0764 28.4738 64.0764 25.2892V4.91267C64.0764 1.72795 61.4948 -0.853613 58.3103 -0.853613Z"
          fill="#F28CC4"
        />
        <path
          d="M51.7188 17.1817C49.3362 17.1817 47.4047 15.2502 47.4047 12.8676C47.3886 11.143 48.5202 9.55073 50.1006 8.88413C50.6043 8.67163 50.538 7.93932 50.0098 7.79796C49.277 7.60232 48.519 7.51809 47.7612 7.54811C43.9326 7.69509 40.7736 10.7555 40.5166 14.5783C40.22 18.9892 43.7102 22.6592 48.0575 22.6592C51.5727 22.6714 54.6874 20.1141 55.4436 16.7272C55.5649 16.1843 54.9309 15.8006 54.5065 16.1601C53.7282 16.8211 52.7399 17.1832 51.7188 17.1817Z"
          fill="#8AC9FE"
        />
        <path
          d="M90.348 94.6979H69.8423C66.6577 94.6979 64.0762 92.1164 64.0762 88.9318V68.5551C64.0762 65.3706 66.6577 62.789 69.8423 62.789H90.348C93.5325 62.789 96.1141 65.3706 96.1141 68.5551V88.9318C96.1141 92.1164 93.5325 94.6979 90.348 94.6979Z"
          fill="#FEE45A"
        />
        <path
          d="M90.3483 62.7889H82.6602C85.8447 62.7889 88.4263 65.3705 88.4263 68.555V88.9318C88.4263 92.1163 85.8447 94.6979 82.6602 94.6979H90.3483C93.5329 94.6979 96.1144 92.1163 96.1144 88.9318V68.5552C96.1144 65.3707 93.5329 62.7889 90.3483 62.7889Z"
          fill="#FEDF30"
        />
        <path
          d="M87.7354 78.7705L80.1444 86.3615L72.499 78.7163L80.0902 71.1251L87.7354 78.7705Z"
          fill="white"
        />
      </g>
      <defs>
        <clipPath id="clip0_58_135">
          <rect width="96.313" height="95" fill="white" />
        </clipPath>
      </defs>
    </svg>